<svg width="256" height="256" viewBox="0 0 256 256" fill="none" xmlns="http://www.w3.org/2000/svg">
<path d="M160 128C160 134.329 158.123 140.516 154.607 145.778C151.091 151.041 146.093 155.142 140.246 157.564C134.399 159.986 127.965 160.62 121.757 159.385C115.55 158.15 109.848 155.103 105.373 150.627C100.897 146.152 97.8496 140.45 96.6149 134.243C95.3801 128.035 96.0138 121.601 98.4359 115.754C100.858 109.907 104.959 104.909 110.222 101.393C115.484 97.8768 121.671 96 128 96C136.479 96.0264 144.603 99.4063 150.598 105.402C156.594 111.397 159.974 119.521 160 128ZM228 84V172C228 186.852 222.1 201.096 211.598 211.598C201.096 222.1 186.852 228 172 228H84C69.1479 228 54.9041 222.1 44.402 211.598C33.9 201.096 28 186.852 28 172V84C28 69.1479 33.9 54.9041 44.402 44.402C54.9041 33.9 69.1479 28 84 28H172C186.852 28 201.096 33.9 211.598 44.402C222.1 54.9041 228 69.1479 228 84ZM176 128C176 118.507 173.185 109.226 167.911 101.333C162.636 93.4391 155.14 87.2868 146.369 83.6538C137.598 80.0208 127.947 79.0702 118.636 80.9223C109.325 82.7744 100.772 87.346 94.0589 94.0589C87.346 100.772 82.7744 109.325 80.9223 118.636C79.0702 127.947 80.0208 137.598 83.6538 146.369C87.2868 155.14 93.4391 162.636 101.333 167.911C109.226 173.185 118.507 176 128 176C140.73 176 152.939 170.943 161.941 161.941C170.943 152.939 176 140.73 176 128ZM192 76C192 73.6266 191.296 71.3065 189.978 69.3332C188.659 67.3598 186.785 65.8217 184.592 64.9134C182.399 64.0052 179.987 63.7676 177.659 64.2306C175.331 64.6936 173.193 65.8365 171.515 67.5147C169.837 69.1929 168.694 71.3311 168.231 73.6589C167.768 75.9867 168.005 78.3995 168.913 80.5922C169.822 82.7849 171.36 84.6591 173.333 85.9776C175.307 87.2962 177.627 88 180 88C183.183 88 186.235 86.7357 188.485 84.4853C190.736 82.2348 192 79.1826 192 76Z" fill="#868686"/>
</svg>
