<svg width="234" height="252" viewBox="0 0 234 252" fill="none" xmlns="http://www.w3.org/2000/svg">
<path fill-rule="evenodd" clip-rule="evenodd" d="M26.7271 0L47.6 17.9308L74.7833 11.1462L63.6188 35.8615L78.6667 58.6385L50.9979 56.2154L33.0375 77.5385L26.7271 50.8846L1 41.1923L24.7854 27.1385L26.7271 0Z" fill="#868686"/>
<path fill-rule="evenodd" clip-rule="evenodd" d="M208.273 0L187.4 17.9308L160.216 11.1462L171.381 35.8615L156.333 59.1231L184.002 56.7L201.962 77.5385L208.273 50.8846L234 40.7077L210.214 26.6538L208.273 0Z" fill="#868686"/>
<path d="M187.898 227.246V103.849C201.195 106.984 212.544 111.403 220.594 117.372C228.754 123.421 233.498 131.039 233.498 140.535C233.498 172.053 216.43 205.504 187.898 227.246Z" fill="#868686" stroke="#868686"/>
<path d="M186.9 228.005C174.036 237.949 158.375 245.547 141.3 248.965V97.9347C157.462 98.8948 173.112 100.334 186.9 103.614V228.005Z" fill="#868686" stroke="#868686"/>
<path d="M94.6953 249.164V97.8759C102.288 97.4211 109.883 97.4209 117.495 97.4209C125.108 97.4209 132.703 97.4211 140.295 97.8759V249.164C133.156 250.568 125.557 251.498 117.495 251.498C109.434 251.498 101.835 250.568 94.6953 249.164Z" fill="#868686" stroke="#868686"/>
<path d="M14.4021 117.372C22.452 111.403 33.8011 106.984 47.098 103.849V227.246C18.5669 205.504 1.49805 172.053 1.49805 140.535C1.49805 131.039 6.24292 123.421 14.4021 117.372Z" fill="#868686" stroke="#868686"/>
<path d="M93.6977 248.949C76.61 245.073 60.9515 237.936 48.0977 228.005V103.627C61.8988 100.802 77.5548 98.9038 93.6977 97.9348V248.949Z" fill="#868686" stroke="#868686"/>
</svg>
