<svg width="256" height="256" viewBox="0 0 256 256" fill="none" xmlns="http://www.w3.org/2000/svg">
<path d="M245.7 77.7L215.5 107.8C209.5 177.7 150.5 232 80.0002 232C65.5002 232 53.5002 229.7 44.4002 225.2C37.1002 221.5 34.1002 217.6 33.3002 216.4C32.6383 215.395 32.2118 214.253 32.0525 213.06C31.8931 211.867 32.005 210.653 32.3799 209.509C32.7548 208.365 33.3829 207.321 34.2175 206.454C35.0521 205.586 36.0717 204.919 37.2002 204.5C37.4002 204.4 61.0002 195.4 76.3002 178.1C66.8116 171.344 58.4717 163.105 51.6002 153.7C37.9002 135.1 23.4002 102.8 32.1002 54.6C32.3737 53.1671 33.0291 51.8346 33.9972 50.7433C34.9653 49.652 36.2101 48.8424 37.6002 48.4C38.9948 47.9434 40.488 47.8791 41.9166 48.2142C43.3453 48.5493 44.6542 49.2709 45.7002 50.3C46.0002 50.7 79.3002 83.5 120 94.1V88C120.039 81.6571 121.328 75.3841 123.791 69.5391C126.255 63.6941 129.846 58.3916 134.359 53.9343C138.872 49.4771 144.218 45.9524 150.094 43.5616C155.969 41.1707 162.257 39.9605 168.6 40C176.925 40.1187 185.077 42.3918 192.262 46.5978C199.448 50.8038 205.421 56.7992 209.6 64H240C241.58 63.9951 243.125 64.4577 244.442 65.3297C245.759 66.2017 246.788 67.444 247.4 68.9C247.977 70.3777 248.123 71.9884 247.822 73.5457C247.521 75.103 246.786 76.5433 245.7 77.7Z" fill="#868686"/>
</svg>
